# xmcd CD database file
#
# Track frame offsets:
#	150
#	13630
#	24982
#	37685
#	42147
#	45785
#
# Disc length: 736 seconds
#
# Revision: 0
# Processed by: cddbd v1.5.1PL0 Copyright (c) Steve Scherf et al.
# Submitted via: CDex 1.51
#
DISCID=2f02de06
DTITLE=Charley Pride - Greatest Hits
DYEAR=1900
DGENRE=Country
TTITLE0=(I'm So) Afraid Of Losing You Again
TTITLE1=It's Gonna Take A Little Bit Longer
TTITLE2=Crystal Chandaliers
TTITLE3=Wonder Could I Live There Anymore
TTITLE4=Is Anybody Goin' To San Antone
TTITLE5=Kiss An Angel Good Morning
EXTD=
EXTT0=
EXTT1=
EXTT2=
EXTT3=
EXTT4=
EXTT5=
PLAYORDER=
